<?xml version="1.0" standalone="no"?>
<!DOCTYPE svg PUBLIC "-//W3C//DTD SVG 20010904//EN"
 "http://www.w3.org/TR/2001/REC-SVG-20010904/DTD/svg10.dtd">
<svg version="1.0" xmlns="http://www.w3.org/2000/svg"
 width="1280.000000pt" height="1280.000000pt" viewBox="0 0 1280.000000 1280.000000"
 preserveAspectRatio="xMidYMid meet">
<metadata>
Created by potrace 1.14, written by Peter Selinger 2001-2017
</metadata>
<g transform="translate(0.000000,1280.000000) scale(0.100000,-0.100000)"
fill="#000000" stroke="none">
<path d="M2052 11304 c-117 -195 -205 -398 -261 -604 -20 -73 -25 -97 -37
-170 -3 -19 -8 -38 -10 -42 -23 -37 -22 -661 1 -813 12 -76 35 -200 50 -260 8
-33 17 -71 19 -85 12 -66 101 -345 151 -475 37 -95 41 -106 100 -240 40 -92
148 -306 195 -388 27 -48 50 -99 50 -113 0 -21 -34 -126 -95 -294 -24 -65
-103 -225 -148 -300 -79 -129 -206 -277 -305 -352 -31 -23 -59 -46 -62 -49 -3
-4 -43 -25 -90 -47 -96 -46 -198 -78 -287 -90 -63 -9 -246 -8 -298 2 -16 3
-46 7 -65 10 -53 8 -203 53 -271 81 -33 14 -124 59 -203 100 -79 42 -150 73
-159 70 -8 -4 -18 -26 -22 -53 -3 -26 -8 -54 -10 -62 -1 -8 -10 -58 -19 -110
-9 -52 -18 -104 -20 -115 -4 -21 -17 -121 -22 -165 -4 -38 -5 -398 0 -450 3
-41 18 -168 21 -180 1 -3 5 -25 9 -50 15 -83 87 -335 116 -405 4 -11 18 -47
31 -80 29 -76 137 -301 184 -382 20 -35 34 -63 32 -63 -9 0 -72 31 -107 52
-19 11 -69 38 -110 60 -41 22 -82 43 -90 49 -30 18 -285 155 -301 161 -21 8
-16 -14 23 -94 15 -32 28 -62 28 -67 0 -5 3 -11 8 -13 4 -1 76 -142 161 -313
85 -170 161 -318 169 -327 8 -10 12 -18 9 -18 -3 0 18 -42 47 -92 29 -51 62
-108 72 -127 74 -133 378 -566 444 -631 3 -3 39 -43 80 -90 130 -148 416 -426
494 -480 12 -8 26 -19 31 -26 14 -16 165 -130 260 -196 109 -76 280 -180 395
-240 52 -28 100 -54 105 -58 20 -15 269 -123 392 -169 130 -49 159 -69 101
-68 -30 0 -132 -9 -203 -19 -16 -2 -57 -6 -90 -9 -33 -4 -71 -8 -85 -11 -14
-2 -43 -6 -65 -9 -146 -18 -185 -23 -240 -32 -22 -4 -44 -6 -48 -5 -5 2 -7 -3
-5 -10 4 -12 36 -24 158 -63 94 -29 426 -136 440 -142 8 -3 20 -7 25 -9 6 -1
120 -38 255 -82 135 -44 272 -87 305 -96 138 -36 257 -60 355 -71 25 -3 56 -7
70 -10 139 -25 676 -26 920 0 19 2 60 6 90 9 30 3 71 8 90 12 102 17 92 21
219 -106 117 -119 228 -203 337 -255 32 -16 61 -32 64 -36 10 -13 60 -3 82 18
13 11 48 44 78 72 72 67 86 70 146 29 27 -18 51 -36 54 -39 11 -13 119 -67
175 -88 69 -26 185 -57 247 -66 93 -14 324 -13 417 1 169 27 349 97 472 185
l68 48 26 -21 c24 -19 63 -53 144 -126 16 -15 33 -21 46 -18 30 8 103 42 150
72 22 13 50 30 63 36 12 6 22 15 22 20 0 4 5 8 11 8 19 0 114 86 243 219 l50
51 70 -6 c39 -3 80 -8 91 -10 20 -4 61 -8 220 -22 152 -13 688 -4 795 13 14 2
39 6 55 9 58 9 198 33 230 40 87 19 308 80 326 91 5 4 19 8 31 10 13 3 32 9
43 14 11 5 121 42 245 82 124 39 230 74 235 78 6 3 18 7 27 8 9 2 36 10 60 18
24 9 48 17 53 19 81 23 132 40 143 48 6 6 12 8 12 6 0 -10 134 39 138 50 2 6
-11 13 -30 16 -62 10 -123 17 -186 21 -35 3 -76 7 -90 10 -15 3 -52 8 -82 10
-30 3 -71 8 -90 10 -19 3 -53 8 -75 10 -22 3 -61 8 -87 11 -26 3 -65 5 -88 6
-44 0 -53 13 -17 27 12 5 85 34 162 64 190 75 248 100 276 118 13 9 35 19 48
24 12 4 74 36 137 71 63 35 117 64 120 64 3 0 10 5 17 10 17 15 137 90 143 90
3 0 10 5 17 11 7 5 57 42 112 80 55 38 115 82 134 97 194 153 221 177 385 337
119 116 183 183 281 296 152 172 354 459 498 704 74 126 500 964 509 1002 7
27 4 26 -116 -40 -110 -60 -183 -99 -301 -162 -49 -26 -106 -58 -125 -70 -38
-24 -80 -40 -80 -30 0 3 10 22 23 43 13 20 37 62 54 92 16 30 35 64 41 75 14
25 54 115 97 220 57 139 130 392 150 525 4 25 9 59 12 75 5 30 9 66 19 160 11
109 5 405 -10 485 -2 14 -7 48 -10 75 -3 28 -8 61 -11 75 -3 14 -8 45 -11 70
-3 25 -7 52 -10 60 -2 8 -6 42 -9 75 -3 38 -11 64 -20 71 -16 12 -51 8 -71 -7
-5 -5 -71 -40 -146 -78 -199 -102 -324 -144 -503 -168 -99 -13 -305 -6 -357
12 -7 2 -24 6 -38 9 -50 8 -187 67 -256 110 -38 24 -103 74 -143 112 -80 75
-201 220 -201 241 0 7 -4 13 -9 13 -5 0 -16 12 -24 28 -51 95 -115 223 -129
257 -42 98 -108 286 -108 307 0 5 28 57 62 116 55 96 208 394 208 406 0 2 16
39 35 80 19 42 35 79 35 82 0 3 6 20 14 37 59 129 183 531 211 684 2 15 7 39
10 53 9 44 14 76 29 205 10 85 19 245 19 355 0 121 -10 327 -17 338 -2 4 -7
34 -10 67 -4 33 -11 76 -16 95 -5 19 -14 58 -21 85 -48 204 -142 425 -262 620
l-55 90 -70 1 c-158 3 -446 -66 -682 -163 -215 -88 -456 -226 -720 -410 -37
-26 -251 -194 -285 -224 -16 -15 -73 -64 -125 -110 -52 -45 -138 -124 -190
-176 -52 -51 -99 -93 -106 -93 -6 0 -31 7 -55 16 -111 40 -253 89 -354 121
-98 31 -420 117 -485 129 -14 3 -83 16 -155 29 -125 23 -147 27 -245 39 -25 4
-63 9 -85 12 -145 19 -510 25 -635 10 -80 -10 -91 -10 -210 -1 -120 9 -399 9
-555 1 -120 -7 -160 -10 -245 -21 -139 -17 -167 -21 -210 -30 -28 -6 -70 -13
-115 -21 -16 -3 -39 -7 -49 -11 -11 -3 -56 -14 -100 -24 -45 -9 -101 -23 -126
-29 -25 -7 -49 -13 -55 -14 -5 -1 -21 -5 -35 -9 -14 -4 -43 -13 -65 -19 -22
-5 -47 -13 -55 -16 -8 -3 -20 -6 -27 -8 -6 -1 -29 -8 -50 -15 -21 -7 -39 -12
-40 -11 -1 0 -73 -24 -160 -55 -87 -30 -166 -57 -175 -60 -11 -3 -44 21 -100
75 -46 44 -99 94 -118 112 -19 18 -55 51 -80 74 -173 160 -474 386 -684 514
-224 136 -546 279 -712 317 -10 2 -53 13 -94 24 -41 11 -91 23 -110 26 -20 3
-47 8 -60 10 -14 3 -68 8 -120 12 l-95 6 -53 -89z"/>
</g>
</svg>
